# xmcd
#
# Track frame offsets:
#      150
#      19797
#      39757
#      56992
#      83156
#      101065
#      122243
#      142385
#      163509
#      185265
#      202428
#      222010
#      242447
#      259694
#      279252
# 
# Disc length: 4033 seconds
#
# Revision: 8
# Processed by: cddbd v1.4PL0 Copyright (c) Steve Scherf et al.
#
# Submitted via: FreeRIP 1.21
#
DISCID=da0fbf0f
DTITLE=Marc Anthony - Marc Anthony
DYEAR=1999
DGENRE=Blues
TTITLE0=When I Dream At Night
TTITLE1=Am I The Only One
TTITLE2=I Need To Know
TTITLE3=You Sang To Me
TTITLE4=My Baby You
TTITLE5=No One
TTITLE6=How Could I
TTITLE7=That's Okay
TTITLE8=Don't Let Me Leave
TTITLE9=Remember Me
TTITLE10=She's Been Good To Me
TTITLE11=Love Is All
TTITLE12=Dimelo (I Need To Know)
TTITLE13=She's Been Good To Me (Spanish)
TTITLE14=Da La Vuelta
EXTD=YEAR: 1999
EXTT0=
EXTT1=
EXTT2=
EXTT3=
EXTT4=
EXTT5=
EXTT6=
EXTT7=
EXTT8=
EXTT9=
EXTT10=
EXTT11=
EXTT12=
EXTT13=
EXTT14=
PLAYORDER=
